<?xml version="1.0" encoding="UTF-8"?>
<svg width="103px" height="100px" viewBox="0 0 103 100" version="1.1" xmlns="http://www.w3.org/2000/svg" xmlns:xlink="http://www.w3.org/1999/xlink">
    <title>77158061540553610</title>
    <g id="Page-1" stroke="none" stroke-width="1" fill="none" fill-rule="evenodd">
        <g id="Artboard" transform="translate(-64.000000, -215.000000)" fill="#656D78" fill-rule="nonzero">
            <g id="77158061540553610" transform="translate(64.000000, 215.000000)">
                <path d="M51.200424,0 C22.926917,0 0,22.9226777 0,51.200424 C0,73.8221124 14.6704799,93.0142168 35.0139748,99.7843596 C37.5728089,100.258312 38.5122352,98.673666 38.5122352,97.3213332 C38.5122352,96.100418 38.4647551,92.0671596 38.4427108,87.7888704 C24.1987034,90.886094 21.1930483,81.7478848 21.1930483,81.7478848 C18.8639834,75.8298392 15.5081632,74.2562152 15.5081632,74.2562152 C10.8627514,71.0784452 15.8583282,71.14373 15.8583282,71.14373 C20.9997368,71.5049172 23.706946,76.419948 23.706946,76.419948 C28.273507,84.2473692 35.6846301,81.9844372 38.6063474,80.6761928 C39.0658862,77.3670048 40.3927836,75.108312 41.8570332,73.8297428 C30.4847196,72.535064 18.5299276,68.1448576 18.5299276,48.5262808 C18.5299276,42.9363556 20.5300235,38.3689473 23.8052975,34.7833575 C23.2736907,33.4937661 21.5211692,28.2862248 24.3012942,21.2337454 C24.3012942,21.2337454 28.60078,19.8576725 38.3850565,26.4819838 C42.4691868,25.3475504 46.8492188,24.778638 51.200424,24.7591373 C55.5516292,24.778638 59.9350528,25.3475504 64.0268132,26.4819838 C73.79922,19.8576725 78.0927704,21.2337454 78.0927704,21.2337454 C80.8796788,28.2862248 79.1263092,33.4937661 78.5947024,34.7833575 C81.8776072,38.3689473 83.8641372,42.9363556 83.8641372,48.5262808 C83.8641372,68.19149 71.8864532,72.5214988 60.4853124,73.7890456 C62.321772,75.3779312 63.9581368,78.4938072 63.9581368,83.2706372 C63.9581368,90.1213268 63.8987872,95.6349444 63.8987872,97.3213332 C63.8987872,98.6838404 64.820408,100.280356 67.4157,99.7775764 C87.7481728,92.9998028 102.4,73.8144816 102.4,51.200424 C102.4,22.9226777 79.4764748,0 51.200424,0 Z M19.1762237,72.9360848 C19.0634586,73.190442 18.6632698,73.2667492 18.2986911,73.0920908 C17.9273294,72.9250624 17.7187566,72.5782888 17.8391523,72.323084 C17.9493738,72.0610956 18.3504104,71.98818 18.7209241,72.1636864 C19.0931337,72.3307144 19.305098,72.6808796 19.1762237,72.9360848 Z M21.6947157,75.1833016 C21.4505327,75.4096796 20.9731889,75.3045452 20.6493073,74.9467496 C20.3144035,74.5898016 20.2516621,74.1124576 20.4992365,73.882688 C20.7510502,73.65631 21.2139805,73.7622924 21.5497321,74.1192404 C21.8846357,74.4804276 21.9499208,74.95438 21.6947157,75.1833016 Z M23.4224965,78.0585388 C23.1087893,78.2764384 22.5958354,78.0721044 22.2787367,77.6168052 C21.9650293,77.1615056 21.9650293,76.6154852 22.2855196,76.396738 C22.603466,76.1779908 23.1087893,76.374694 23.4301272,76.826602 C23.7429868,77.289532 23.7429868,77.835552 23.4224965,78.0585388 Z M26.3445437,81.3884696 C26.0639028,81.6979384 25.4661633,81.614848 25.0286687,81.1926152 C24.581,80.779708 24.4563649,80.1938384 24.7378536,79.8843704 C25.0218858,79.5740548 25.6230169,79.661384 26.0639028,80.0802256 C26.5081802,80.4922848 26.6438374,81.0823936 26.3445437,81.3884696 Z M30.121006,82.5126168 C29.997219,82.9136536 29.4215236,83.0959428 28.841589,82.9255236 C28.2625022,82.7500172 27.8835099,82.2803044 28.0005143,81.8750284 C28.12091,81.4714484 28.6991488,81.281528 29.2833228,81.4638172 C29.8615616,81.638476 30.2414019,82.1047976 30.121006,82.5126168 Z M34.4187788,82.9894508 C34.4331922,83.4116836 33.9414348,83.7618488 33.3326732,83.76948 C32.72052,83.7830456 32.2253712,83.4413592 32.2185883,83.0259088 C32.2185883,82.5994364 32.6993235,82.2526628 33.3114767,82.2424884 C33.9202385,82.2306184 34.4187788,82.5697612 34.4187788,82.9894508 Z M38.6408588,82.8276092 C38.7137746,83.2396684 38.2906936,83.6627488 37.6861712,83.775514 C37.0918231,83.8840396 36.5415634,83.6296824 36.4661041,83.2210152 C36.3923406,82.798782 36.8230522,82.3757012 37.4165525,82.266328 C38.0219228,82.1611936 38.5637038,82.4087676 38.6408588,82.8276092 Z" id="Shape"></path>
            </g>
        </g>
    </g>
</svg>