<?xml version="1.0" encoding="UTF-8"?>
<svg width="100px" height="100px" viewBox="0 0 100 100" version="1.1" xmlns="http://www.w3.org/2000/svg" xmlns:xlink="http://www.w3.org/1999/xlink">
    <title>16304616191553750378</title>
    <g id="Page-1" stroke="none" stroke-width="1" fill="none" fill-rule="evenodd">
        <g id="Artboard" transform="translate(-202.000000, -215.000000)" fill="#656D78" fill-rule="nonzero">
            <g id="16304616191553750378" transform="translate(202.000000, 215.000000)">
                <path d="M49.9009901,9.00990099 C63.2277228,9.00990099 64.7920792,9.06930693 70.0594059,9.30693069 C74.9306931,9.52475248 77.5643564,10.3366337 79.3267327,11.029703 C81.6633663,11.9405941 83.3267327,13.009901 85.0693069,14.7524752 C86.8118812,16.4950495 87.9009901,18.1584158 88.7920792,20.4950495 C89.4653465,22.2574257 90.2970297,24.8910891 90.5148515,29.7623762 C90.7524752,35.029703 90.8118812,36.5940594 90.8118812,49.9207921 C90.8118812,63.2475248 90.7524752,64.8118812 90.5148515,70.0792079 C90.2970297,74.950495 89.4851485,77.5841584 88.7920792,79.3465347 C87.8811881,81.6831683 86.8118812,83.3465347 85.0693069,85.0891089 C83.3267327,86.8316832 81.6633663,87.9207921 79.3267327,88.8118812 C77.5643564,89.4851485 74.9306931,90.3168317 70.0594059,90.5346535 C64.7920792,90.7722772 63.2277228,90.8316832 49.9009901,90.8316832 C36.5742574,90.8316832 35.009901,90.7722772 29.7425743,90.5346535 C24.8712871,90.3168317 22.2376238,89.5049505 20.4752475,88.8118812 C18.1386139,87.9009901 16.4752475,86.8316832 14.7326733,85.0891089 C12.990099,83.3465347 11.9009901,81.6831683 11.009901,79.3465347 C10.3366337,77.5841584 9.5049505,74.950495 9.28712871,70.0792079 C9.04950495,64.8118812 8.99009901,63.2475248 8.99009901,49.9207921 C8.99009901,36.5940594 9.04950495,35.029703 9.28712871,29.7623762 C9.5049505,24.8910891 10.3168317,22.2574257 11.009901,20.4950495 C11.9207921,18.1584158 12.990099,16.4950495 14.7326733,14.7524752 C16.4752475,13.009901 18.1386139,11.9207921 20.4752475,11.029703 C22.2376238,10.3564356 24.8712871,9.52475248 29.7425743,9.30693069 C35.009901,9.04950495 36.5742574,9.00990099 49.9009901,9.00990099 M49.9009901,0.0198019802 C36.3564356,0.0198019802 34.6534653,0.0792079208 29.3267327,0.316831683 C24.019802,0.554455446 20.3960396,1.40594059 17.2277228,2.63366337 C13.9405941,3.9009901 11.1683168,5.62376238 8.3960396,8.3960396 C5.62376238,11.1683168 3.92079208,13.960396 2.63366337,17.2277228 C1.40594059,20.3960396 0.554455446,24.019802 0.316831683,29.3465347 C0.0792079208,34.6534653 0.0198019802,36.3564356 0.0198019802,49.9009901 C0.0198019802,63.4455446 0.0792079208,65.1485149 0.316831683,70.4752475 C0.554455446,75.7821782 1.40594059,79.4059406 2.63366337,82.5940594 C3.9009901,85.8811881 5.62376238,88.6534653 8.3960396,91.4257426 C11.1683168,94.1980198 13.960396,95.9009901 17.2277228,97.1881188 C20.3960396,98.4158416 24.019802,99.2673267 29.3465347,99.5049505 C34.6732673,99.7425743 36.3564356,99.8019802 49.9207921,99.8019802 C63.4851485,99.8019802 65.1683168,99.7425743 70.4950495,99.5049505 C75.8019802,99.2673267 79.4257426,98.4158416 82.6138614,97.1881188 C85.9009901,95.9207921 88.6732673,94.1980198 91.4455446,91.4257426 C94.2178218,88.6534653 95.9207921,85.8613861 97.2079208,82.5940594 C98.4356436,79.4257426 99.2871287,75.8019802 99.5247525,70.4752475 C99.7623762,65.1485149 99.8217822,63.4653465 99.8217822,49.9009901 C99.8217822,36.3366337 99.7623762,34.6534653 99.5247525,29.3267327 C99.2871287,24.019802 98.4356436,20.3960396 97.2079208,17.2079208 C95.9405941,13.9207921 94.2178218,11.1485149 91.4455446,8.37623762 C88.6732673,5.6039604 85.8811881,3.9009901 82.6138614,2.61386139 C79.4455446,1.38613861 75.8217822,0.534653465 70.4950495,0.297029703 C65.1485149,0.0792079208 63.4455446,0.0198019802 49.9009901,0.0198019802 L49.9009901,0.0198019802 Z" id="Shape"></path>
                <path d="M49.9009901,24.2772277 C35.7623762,24.2772277 24.2772277,35.7425743 24.2772277,49.9009901 C24.2772277,64.0594059 35.7623762,75.5247525 49.9009901,75.5247525 C64.039604,75.5247525 75.5247525,64.039604 75.5247525,49.9009901 C75.5247525,35.7623762 64.039604,24.2772277 49.9009901,24.2772277 Z M49.9009901,66.5346535 C40.7128713,66.5346535 33.2673267,59.0891089 33.2673267,49.9009901 C33.2673267,40.7128713 40.7128713,33.2673267 49.9009901,33.2673267 C59.0891089,33.2673267 66.5346535,40.7128713 66.5346535,49.9009901 C66.5346535,59.0891089 59.0891089,66.5346535 49.9009901,66.5346535 Z" id="Shape"></path>
                <circle id="Oval" cx="76.5346535" cy="23.2673267" r="5.98019802"></circle>
            </g>
        </g>
    </g>
</svg>